<svg width="14" height="14" viewBox="0 0 14 14" fill="none" xmlns="http://www.w3.org/2000/svg">
<path d="M1.50912 11.5092L0.978795 12.0396L2.03945 13.1002L2.56978 12.5699L1.50912 11.5092ZM12.7836 2.35614C13.0764 2.06325 13.0764 1.58838 12.7836 1.29548C12.4907 1.00259 12.0158 1.00259 11.7229 1.29548L12.7836 2.35614ZM4.92681 1.29548L4.39648 0.765153L3.33582 1.82581L3.86615 2.35614L4.92681 1.29548ZM12.3859 2.54533C12.7833 2.42845 13.0107 2.01156 12.8938 1.61418C12.7769 1.2168 12.36 0.989409 11.9626 1.10629L12.3859 2.54533ZM11.6834 10.1734L12.2137 10.7038L13.2744 9.6431L12.744 9.11277L11.6834 10.1734ZM2.56978 12.5699L12.744 2.39566L11.6834 1.335L1.50912 11.5092L2.56978 12.5699ZM12.744 2.39566L12.7836 2.35614L11.7229 1.29548L11.6834 1.335L12.744 2.39566ZM3.86615 2.35614C4.49233 2.98233 5.41243 3.22904 6.28139 3.31772C7.17393 3.40879 8.15445 3.34664 9.04366 3.23264C9.93841 3.11792 10.7713 2.94656 11.3782 2.80473C11.6825 2.73363 11.932 2.6695 12.1064 2.62284C12.1936 2.59951 12.2622 2.58051 12.3096 2.56716C12.3333 2.56049 12.3517 2.55522 12.3645 2.55153C12.371 2.54969 12.376 2.54823 12.3795 2.54719C12.3813 2.54667 12.3827 2.54626 12.3838 2.54595C12.3843 2.54579 12.3848 2.54566 12.3851 2.54556C12.3853 2.54551 12.3855 2.54545 12.3856 2.54543C12.3857 2.54538 12.3859 2.54533 12.1743 1.82581C11.9626 1.10629 11.9627 1.10626 11.9628 1.10624C11.9628 1.10624 11.9628 1.10623 11.9628 1.10623C11.9628 1.10623 11.9627 1.10627 11.9625 1.10632C11.9621 1.10644 11.9614 1.10666 11.9603 1.10698C11.958 1.10763 11.9544 1.10869 11.9494 1.11013C11.9393 1.11302 11.9238 1.11747 11.9031 1.12331C11.8616 1.13499 11.7993 1.15225 11.7187 1.1738C11.5576 1.21691 11.3237 1.27707 11.0369 1.34408C10.4618 1.47847 9.68163 1.63856 8.8529 1.74482C8.01864 1.85178 7.1652 1.90011 6.43367 1.82546C5.67858 1.74841 5.18451 1.55318 4.92681 1.29548L3.86615 2.35614ZM12.2137 1.86533C11.5233 1.5723 11.5232 1.57249 11.5231 1.57271C11.5231 1.57281 11.523 1.57304 11.5229 1.57324C11.5228 1.57364 11.5225 1.57412 11.5223 1.57469C11.5218 1.57582 11.5212 1.57728 11.5205 1.57907C11.519 1.58265 11.5169 1.58755 11.5144 1.59373C11.5092 1.60609 11.502 1.62358 11.493 1.64594C11.4749 1.69064 11.4494 1.75488 11.4182 1.83651C11.3557 1.99968 11.2703 2.233 11.1757 2.51945C10.9871 3.09035 10.7588 3.88205 10.6059 4.7558C10.4537 5.62489 10.3703 6.60653 10.4922 7.54656C10.6143 8.48794 10.95 9.44003 11.6834 10.1734L12.744 9.11277C12.3187 8.68741 12.075 8.08789 11.9798 7.35367C11.8844 6.6181 11.9458 5.80014 12.0834 5.01447C12.2201 4.23347 12.4264 3.51527 12.6 2.98995C12.6864 2.72829 12.7639 2.51692 12.8192 2.37243C12.8468 2.30024 12.8688 2.2449 12.8835 2.20849C12.8909 2.19029 12.8964 2.17684 12.8999 2.16839C12.9017 2.16417 12.9029 2.1612 12.9036 2.15952C12.904 2.15867 12.9042 2.15815 12.9043 2.15796C12.9043 2.15786 12.9043 2.15785 12.9043 2.15791C12.9043 2.15794 12.9042 2.15806 12.9042 2.15807C12.9042 2.1582 12.9041 2.15836 12.2137 1.86533Z" fill="white"/>
</svg>
