<svg width="71" height="94" viewBox="0 0 71 94" fill="none" xmlns="http://www.w3.org/2000/svg">
<path d="M64.7823 93.6234C64.4383 94.0554 63.8092 94.1267 63.3771 93.7827L56.3368 88.176C55.9048 87.832 55.8335 87.2028 56.1775 86.7708C56.5216 86.3388 57.1507 86.2675 57.5828 86.6115L63.8408 91.5952L68.8245 85.3371C69.1685 84.9051 69.7976 84.8338 70.2297 85.1778C70.6617 85.5219 70.733 86.151 70.389 86.5831L64.7823 93.6234ZM0.859009 9.23235C7.02015 4.08749 12.7264 1.46823 18.0115 0.943339C23.3174 0.416373 28.0818 2.01221 32.3126 5.0726C40.7035 11.1421 47.0845 23.0333 51.8752 35.9653C56.6841 48.9461 59.9621 63.1793 62.0373 74.1504C63.0756 79.6396 63.8143 84.3201 64.2935 87.6295C64.5331 89.2844 64.7079 90.5968 64.8229 91.4965C64.8805 91.9464 64.923 92.2931 64.9513 92.5279C64.9654 92.6453 64.976 92.7347 64.983 92.795C64.9865 92.8252 64.9892 92.8481 64.991 92.8636C64.9919 92.8714 64.9925 92.8773 64.993 92.8813C64.9932 92.8833 64.9934 92.8849 64.9935 92.8859C64.9937 92.8871 64.9937 92.8878 64.0001 93.0004C63.0065 93.113 63.0064 93.1128 63.0063 93.112C63.0062 93.1112 63.0061 93.11 63.0059 93.1082C63.0055 93.1048 63.0049 93.0994 63.0041 93.0922C63.0024 93.0778 62.9999 93.0561 62.9965 93.027C62.9897 92.969 62.9795 92.8819 62.9656 92.7668C62.9379 92.5367 62.896 92.1949 62.8391 91.7501C62.7254 90.8605 62.552 89.5592 62.3141 87.9162C61.8383 84.6299 61.1042 79.9783 60.0722 74.5221C58.0067 63.6026 54.7535 49.4919 49.9998 36.6601C45.2281 23.7795 39.0152 12.3893 31.1405 6.69309C27.2385 3.87062 22.952 2.4625 18.2092 2.93355C13.4454 3.40667 8.10479 5.78737 2.14093 10.7675L0.859009 9.23235Z" fill="url(#paint0_linear_1_201)"/>
<defs>
<linearGradient id="paint0_linear_1_201" x1="72.5" y1="93" x2="38" y2="-29.5" gradientUnits="userSpaceOnUse">
<stop stop-color="white"/>
<stop offset="1" stop-color="white" stop-opacity="0"/>
</linearGradient>
</defs>
</svg>
