<svg width="24" height="24" viewBox="0 0 24 24" fill="none" xmlns="http://www.w3.org/2000/svg">
<path d="M5.34025 17.3404L4.63314 18.0475L6.04736 19.4617L6.75446 18.7546L5.34025 17.3404ZM19.011 6.49812C19.4015 6.10759 19.4015 5.47443 19.011 5.0839C18.6205 4.69338 17.9873 4.69338 17.5968 5.0839L19.011 6.49812ZM9.58289 5.0839L8.87579 4.3768L7.46157 5.79101L8.16868 6.49812L9.58289 5.0839ZM18.4913 6.75037C19.0211 6.59453 19.3243 6.03867 19.1685 5.50883C19.0126 4.97899 18.4568 4.6758 17.9269 4.83165L18.4913 6.75037ZM17.5494 15.8789L18.2565 16.586L19.6707 15.1718L18.9636 14.4647L17.5494 15.8789ZM6.75446 18.7546L18.9636 6.54553L17.5494 5.13132L5.34025 17.3404L6.75446 18.7546ZM18.9636 6.54553L19.011 6.49812L17.5968 5.0839L17.5494 5.13132L18.9636 6.54553ZM8.16868 6.49812C8.94467 7.2741 10.0772 7.57359 11.1275 7.68078C12.2093 7.79117 13.3944 7.71566 14.4651 7.57839C15.5432 7.44016 16.5461 7.23378 17.2766 7.06309C17.6429 6.9775 17.9433 6.90027 18.1535 6.84405C18.2586 6.81592 18.3414 6.79301 18.3986 6.77689C18.4273 6.76882 18.4496 6.76245 18.4651 6.75797C18.4729 6.75572 18.479 6.75395 18.4834 6.75268C18.4856 6.75204 18.4873 6.75153 18.4887 6.75114C18.4893 6.75095 18.4899 6.75079 18.4903 6.75066C18.4905 6.7506 18.4908 6.75052 18.4909 6.75049C18.4911 6.75043 18.4913 6.75037 18.2091 5.79101C17.9269 4.83165 17.9271 4.83161 17.9272 4.83158C17.9272 4.83158 17.9273 4.83155 17.9273 4.83155C17.9273 4.83155 17.9272 4.83158 17.9269 4.83165C17.9265 4.83177 17.9257 4.83203 17.9244 4.8324C17.9218 4.83315 17.9175 4.83439 17.9116 4.8361C17.8997 4.83951 17.8813 4.84479 17.8566 4.85175C17.8072 4.86566 17.7329 4.88625 17.6367 4.91199C17.4441 4.96349 17.1645 5.03542 16.8216 5.11555C16.1335 5.27632 15.2008 5.46769 14.2108 5.59462C13.2133 5.72251 12.1977 5.77959 11.3306 5.69111C10.432 5.59942 9.86757 5.36857 9.58289 5.0839L8.16868 6.49812ZM18.2565 5.83843C17.3359 5.44772 17.3358 5.44798 17.3357 5.44826C17.3357 5.44838 17.3355 5.44869 17.3354 5.44895C17.3352 5.44946 17.335 5.45006 17.3347 5.45077C17.3341 5.45219 17.3333 5.45401 17.3324 5.45622C17.3305 5.46065 17.328 5.46665 17.3249 5.4742C17.3186 5.48929 17.3099 5.51054 17.2989 5.53765C17.277 5.59186 17.2461 5.66953 17.2084 5.76812C17.133 5.96517 17.0299 6.24662 16.9158 6.59201C16.6885 7.28013 16.4132 8.23507 16.2285 9.28975C16.045 10.3382 15.9435 11.5271 16.0915 12.6688C16.2398 13.8122 16.6487 14.9782 17.5494 15.8789L18.9636 14.4647C18.4737 13.9748 18.1874 13.2788 18.0749 12.4116C17.9622 11.5425 18.0345 10.5719 18.1986 9.63464C18.3616 8.70363 18.6077 7.84668 18.8149 7.21934C18.9181 6.907 19.0105 6.65482 19.0764 6.48268C19.1093 6.39668 19.1355 6.33086 19.1529 6.28773C19.1616 6.26617 19.1682 6.25029 19.1723 6.24042C19.1743 6.23548 19.1758 6.23204 19.1766 6.23015C19.1769 6.2292 19.1772 6.22864 19.1773 6.22847C19.1773 6.22838 19.1773 6.22839 19.1772 6.2285C19.1772 6.22856 19.1772 6.22872 19.1771 6.22874C19.1771 6.22892 19.177 6.22913 18.2565 5.83843Z" fill="black"/>
</svg>
