<svg width="55" height="32" viewBox="0 0 55 32" fill="none" xmlns="http://www.w3.org/2000/svg">
<path fill-rule="evenodd" clip-rule="evenodd" d="M1.41527 22.3428C4.17067 28.5181 12.2337 32.851 18.7027 31.6333C20.3559 31.3226 23.0572 30.1501 24.7055 29.0276L27.7031 26.9864L30.7008 29.0276C38.1362 34.0896 47.5478 32.1862 52.7514 24.5669C54.3772 22.1866 54.7576 20.5756 54.7576 16.069C54.7576 11.3736 54.4039 9.99558 52.4876 7.22112C47.4055 -0.136788 38.0729 -1.88899 30.7008 3.13042L27.7031 5.1716L24.7621 3.16884C18.562 -1.05214 11.2548 -0.638726 5.86719 4.23871C4.00168 5.92743 1.97051 8.51898 1.35366 9.99725C-0.063993 13.3947 -0.0356901 19.0915 1.41527 22.3428ZM4.96066 21.9252C3.65205 21.9252 2.70722 21.3707 2.47081 20.4637C1.69497 17.4854 1.93804 16.9142 3.97837 16.9142C5.21955 16.9142 6.05949 17.3919 6.05949 18.0985C6.05949 18.7499 6.28675 19.8774 6.56478 20.604C6.94355 21.5945 6.54231 21.9252 4.96066 21.9252ZM6.05949 14.0595C6.05949 14.7661 5.21955 15.2438 3.97837 15.2438C1.75407 15.2438 1.64419 15.0225 2.42169 12.1119C2.77215 10.8007 3.55049 10.2328 4.99729 10.2328C6.54564 10.2328 6.94188 10.5668 6.56478 11.554C6.28675 12.2806 6.05949 13.4081 6.05949 14.0595ZM8.06402 25.6835C9.62486 28.0738 8.98388 28.4179 6.74959 26.3893C5.91215 25.6292 5.22704 24.6897 5.22704 24.3013C5.22704 22.9057 6.72711 23.6365 8.06402 25.6835ZM9.38928 3.85285C9.38928 4.90017 6.72545 8.56241 5.96376 8.56241C4.64516 8.56241 5.18375 7.22446 7.30816 5.22171C8.45277 4.14266 9.38928 3.52714 9.38928 3.85285ZM11.9474 21.9252C9.53496 21.9252 8.57931 21.5427 8.29794 20.4637C7.44468 17.1864 7.68775 16.9142 11.4704 16.9142C15.0774 16.9142 15.2164 17.0069 15.2164 19.4197C15.2164 21.7783 15.0249 21.9252 11.9474 21.9252ZM15.2164 12.7383C15.2164 15.1511 15.0774 15.2438 11.4704 15.2438C7.54707 15.2438 7.44052 15.1403 8.24882 12.1119C8.66005 10.5718 9.33517 10.2328 11.984 10.2328C15.0208 10.2328 15.2164 10.3848 15.2164 12.7383ZM15.0607 26.7275C15.3904 30.1534 13.5715 30.3747 11.0908 27.2111C9.11207 24.688 9.80467 23.3041 12.8314 23.7334C14.3723 23.9522 14.8568 24.6028 15.0607 26.7275ZM12.511 7.9828C11.2523 7.93353 10.0119 7.85669 9.75639 7.81075C9.19115 7.7097 10.0353 6.15293 11.726 4.17774C13.7863 1.77076 15.3579 2.34369 15.0607 5.39375C14.8343 7.71972 14.5005 8.0588 12.511 7.9828ZM21.876 24.5302C21.876 25.7503 18.5995 29.4418 17.5156 29.4418C17.1086 29.4418 16.893 28.2208 17.037 26.7275C17.2542 24.4658 17.6796 23.9689 19.5868 23.7493C21.0052 23.5847 21.876 23.8821 21.876 24.5302ZM23.5409 19.4197C23.5409 21.7858 23.3561 21.9252 20.2111 21.9252C17.0661 21.9252 16.8813 21.7858 16.8813 19.4197C16.8813 17.0537 17.0661 16.9142 20.2111 16.9142C23.3561 16.9142 23.5409 17.0537 23.5409 19.4197ZM23.5409 12.7383C23.5409 15.1044 23.3561 15.2438 20.2111 15.2438C17.0661 15.2438 16.8813 15.1044 16.8813 12.7383C16.8813 10.3722 17.0661 10.2328 20.2111 10.2328C23.3561 10.2328 23.5409 10.3722 23.5409 12.7383ZM20.1786 4.54438C22.611 7.16349 22.3305 8.34026 19.3786 7.90513C17.2651 7.59444 16.8813 7.16683 16.8813 5.12733C16.8813 2.24597 17.8811 2.06975 20.1786 4.54438ZM26.0382 24.6813C26.0382 25.8756 24.4149 27.7715 23.3919 27.7715C23.0356 27.7715 23.1704 26.8319 23.6924 25.6835C24.7038 23.4553 26.0382 22.8857 26.0382 24.6813ZM25.7127 7.49756C25.3589 7.85168 24.5423 7.41822 23.898 6.53377C22.3779 4.44833 23.1688 3.65491 24.9677 5.46057C25.731 6.22559 26.0657 7.14261 25.7127 7.49756ZM29.368 18.9528C29.368 21.1527 28.2092 22.3378 26.8707 21.5077C26.4128 21.2237 26.0382 20.0745 26.0382 18.9528C26.0382 17.4712 26.4927 16.9142 27.7031 16.9142C28.9135 16.9142 29.368 17.4712 29.368 18.9528ZM29.2148 12.9471C29.4296 14.8171 29.1491 15.2438 27.7031 15.2438C26.2572 15.2438 25.9766 14.8171 26.1914 12.9471C26.541 9.89536 28.8652 9.89536 29.2148 12.9471ZM31.7255 25.7094C32.7194 27.8976 32.0285 28.4363 30.3669 26.7693C29.1899 25.5883 29.095 24.6989 30.0789 24.0883C30.4693 23.8461 31.211 24.5761 31.7255 25.7094ZM31.8654 6.05688C31.375 6.97558 30.6125 7.72724 30.1713 7.72724C29.0683 7.72724 29.1632 6.59641 30.3669 5.38874C31.9386 3.81193 32.8468 4.21699 31.8654 6.05688ZM38.5249 19.4197C38.5249 21.7858 38.3401 21.9252 35.1951 21.9252C32.0502 21.9252 31.8654 21.7858 31.8654 19.4197C31.8654 17.0537 32.0502 16.9142 35.1951 16.9142C38.3401 16.9142 38.5249 17.0537 38.5249 19.4197ZM38.5249 12.7383C38.5249 15.1044 38.3401 15.2438 35.1951 15.2438C32.0502 15.2438 31.8654 15.1044 31.8654 12.7383C31.8654 10.3722 32.0502 10.2328 35.1951 10.2328C38.3401 10.2328 38.5249 10.3722 38.5249 12.7383ZM38.5249 26.5187C38.5249 29.9279 38.0721 30.0908 35.4565 27.6262C32.7852 25.1073 32.9991 23.5956 36.0276 23.5956C38.3268 23.5956 38.5249 23.8278 38.5249 26.5187ZM38.5249 5.12733C38.5249 7.16683 38.1412 7.59444 36.0276 7.90513C33.0724 8.34026 32.8535 7.30464 35.34 4.64877C37.7341 2.0923 38.5249 2.21089 38.5249 5.12733ZM46.017 24.2654C46.017 25.6652 42.5939 29.4418 41.3253 29.4418C40.4271 29.4418 40.1565 28.6927 40.3455 26.7275C40.5744 24.3406 40.9324 23.9814 43.3115 23.7518C44.7991 23.6073 46.017 23.8386 46.017 24.2654ZM47.1574 20.0461C46.7437 21.5928 46.0736 21.9252 43.3673 21.9252C40.2714 21.9252 40.0949 21.7908 40.343 19.6285C40.5786 17.5731 40.9782 17.305 44.1439 17.0754C47.8284 16.8073 47.9815 16.9593 47.1574 20.0461ZM47.6702 14.6174C47.6843 15.3925 41.5092 15.4543 40.7451 14.6868C40.4396 14.3811 40.1898 13.2536 40.1898 12.1812C40.1898 10.4741 40.5911 10.2328 43.4222 10.2328C46.5314 10.2328 47.6111 11.3469 47.6702 14.6174ZM43.8068 7.78737C42.504 8.04961 41.158 8.12144 40.8142 7.94689C40.4704 7.7715 40.1898 6.52375 40.1898 5.17243C40.1898 2.02716 41.9721 1.95951 44.3712 5.01291L46.1751 7.30965L43.8068 7.78737ZM50.1792 24.156C50.1792 25.0087 47.5212 27.7715 46.7012 27.7715C46.3041 27.7715 46.5922 26.8319 47.3422 25.6835C48.6175 23.7309 50.1792 22.8899 50.1792 24.156ZM49.8703 8.31604C49.5199 8.66765 48.5176 8.02122 47.6436 6.87953C45.2802 3.79439 45.6856 2.83978 48.2621 5.42382C49.4966 6.66322 50.2208 7.96443 49.8703 8.31604ZM52.6882 21.2989C52.6815 21.6438 51.805 21.9252 50.7394 21.9252C49.0612 21.9252 48.8514 21.5912 49.1694 19.4197C49.4641 17.4011 49.9403 16.9142 51.6193 16.9142C53.3741 16.9142 53.6239 17.2107 53.201 18.7933C52.9254 19.8264 52.694 20.9539 52.6882 21.2989ZM51.5735 15.2438C49.8837 15.2438 49.4042 14.7811 49.1936 12.9471C48.9996 11.2517 49.3309 10.5777 50.4589 10.3739C52.3336 10.0348 52.4035 10.1025 53.1152 12.9488C53.6289 15.0016 53.4657 15.2438 51.5735 15.2438Z" fill="white"/>
</svg>
