<svg width="71" height="71" viewBox="0 0 71 71" fill="none" xmlns="http://www.w3.org/2000/svg">
<g clip-path="url(#clip0_1_43)">
<path d="M7.37224 35.4248C7.42016 36.422 7.83046 37.181 8.39844 37.3217C8.91913 37.4504 14.8385 38.5384 21.5517 39.7401C36.4241 42.4009 36.5975 42.4452 33.0116 42.6708C29.2278 42.9091 29.9926 42.8818 23.2739 43.0213C17.4565 43.1427 17.36 43.1726 17.2708 44.8916C17.221 45.8525 17.409 46.8535 17.6883 47.1156C17.9681 47.3773 22.4297 48.3994 27.6034 49.3867C32.7767 50.3744 37.0095 51.3511 37.0095 51.5579C37.0091 51.7643 35.2091 52.4383 33.0099 53.0545C26.3664 54.9176 26.1478 56.8568 31.9821 62.1663C35.0209 64.9323 35.0312 64.9354 36.3829 63.5837C37.7007 62.2659 37.6766 62.1605 35.4871 59.7037L33.2369 57.178L39.7892 55.1767C43.3932 54.0758 46.6097 52.9072 46.938 52.5789C47.2659 52.251 47.5005 51.2798 47.4595 50.4214C47.3891 48.9537 47.042 48.8008 41.6861 47.8752C35.1742 46.7501 35.9811 46.4433 46.7213 45.9619C53.8424 45.6422 54.1846 45.5536 54.6901 43.895C54.9946 42.8961 54.8573 42.0019 54.3661 41.7843C52.2455 40.8433 39.0065 38.9245 38.4532 39.4777C38.1132 39.8178 36.7947 40.1766 35.5245 40.2748C32.437 40.513 29.7362 37.9801 30.0414 35.1322L30.2497 33.1908L19.0463 33.2009C12.8853 33.2063 7.72006 33.3348 7.56832 33.4866C7.41658 33.6383 7.32866 34.5105 7.37224 35.4248Z" fill="white"/>
<path d="M15.5034 27.3431C15.5828 29.0041 15.7008 29.0723 19.6309 29.7364C21.8555 30.1129 25.4648 30.7245 27.6516 31.0958C30.305 31.5462 32.1182 31.4428 33.1047 30.7836C34.0222 30.1711 35.3555 30.0412 36.6215 30.4418C39.3813 31.3148 39.9512 32.0076 40.1829 34.771L40.3812 37.1307L51.3571 37.249C61.5495 37.3586 62.3753 37.2559 62.9187 35.8104C63.2405 34.9534 63.2789 34.0281 63.0046 33.7538C62.7298 33.4791 56.627 32.1868 49.4422 30.8821C42.2583 29.5773 35.9129 28.3694 35.3428 28.1975C34.7721 28.0261 36.8204 27.8037 39.8941 27.7044C53.9168 27.2484 52.8101 27.436 52.9115 25.4898C52.9613 24.5334 52.8646 23.6138 52.6964 23.4456C52.5286 23.2779 48.067 22.2945 42.7816 21.2606C37.4962 20.2267 33.1716 19.2052 33.1725 18.9902C33.1725 18.7753 35.1379 18.0834 37.539 17.4515C41.6865 16.3611 41.9243 16.2132 42.2839 14.5036C42.6335 12.8408 42.3933 12.4443 39.1331 9.30244L35.6035 5.90112L33.995 7.2281L32.386 8.55463L34.6634 10.832C35.9153 12.0839 36.8061 13.243 36.6422 13.4069C36.4782 13.5708 33.4026 14.5913 29.8076 15.6751C23.1512 17.6815 22.217 18.3505 22.8999 20.6203C23.2104 21.6535 24.3033 22.0563 28.522 22.6936C31.4025 23.1292 33.6427 23.6017 33.5004 23.744C33.3586 23.8858 29.3646 24.2372 24.6258 24.5239C19.8865 24.8111 15.8771 25.1778 15.7154 25.3395C15.5542 25.5007 15.4585 26.4022 15.5034 27.3431Z" fill="white"/>
</g>
<defs>
<clipPath id="clip0_1_43">
<rect width="50.3124" height="49.5615" fill="white" transform="translate(0 35.5762) rotate(-45)"/>
</clipPath>
</defs>
</svg>
