<svg width="26" height="25" viewBox="0 0 26 25" fill="none" xmlns="http://www.w3.org/2000/svg">
<g clip-path="url(#clip0_1_25)">
<path d="M19.9329 14.788C19.4464 16.1045 18.5951 17.2552 17.4785 18.1055C16.3619 18.9558 15.0263 19.4705 13.6278 19.5894C12.2294 19.7083 10.826 19.4265 9.58189 18.7769C8.33778 18.1274 7.30439 17.1369 6.60265 15.9214C5.90091 14.706 5.55983 13.3158 5.61934 11.9136C5.67885 10.5114 6.13647 9.15509 6.93867 8.00346C7.74086 6.85183 8.85445 5.95248 10.1491 5.41065C11.4438 4.86881 12.866 4.7069 14.2493 4.94386C13.1725 5.80131 12.4392 7.01679 12.1828 8.36921C11.9264 9.72163 12.1639 11.1212 12.8522 12.3133C13.5405 13.5054 14.6337 14.4108 15.9332 14.865C17.2326 15.3192 18.6519 15.2918 19.9329 14.788Z" stroke="black" stroke-width="1.64202" stroke-linecap="round" stroke-linejoin="round"/>
</g>
<defs>
<clipPath id="clip0_1_25">
<rect width="19.7043" height="19.7043" fill="white" transform="translate(5.99683 0.182739) rotate(15)"/>
</clipPath>
</defs>
</svg>
