<svg width="25" height="25" viewBox="0 0 25 25" fill="none" xmlns="http://www.w3.org/2000/svg">
<g clip-path="url(#clip0_1_14)">
<path d="M13.7308 16.5093C15.9207 15.9225 17.2203 13.6715 16.6335 11.4816C16.0467 9.29169 13.7958 7.9921 11.6059 8.57889C9.41596 9.16567 8.11637 11.4166 8.70315 13.6065C9.28994 15.7965 11.5409 17.096 13.7308 16.5093Z" stroke="white" stroke-width="1.64202" stroke-linecap="round" stroke-linejoin="round"/>
<path d="M10.3309 3.82068L10.7559 5.40675" stroke="white" stroke-width="1.64202" stroke-linecap="round" stroke-linejoin="round"/>
<path d="M14.5808 19.6814L15.0058 21.2675" stroke="white" stroke-width="1.64202" stroke-linecap="round" stroke-linejoin="round"/>
<path d="M4.84534 8.02747L6.27319 8.85184" stroke="white" stroke-width="1.64202" stroke-linecap="round" stroke-linejoin="round"/>
<path d="M19.0635 16.2363L20.4914 17.0607" stroke="white" stroke-width="1.64202" stroke-linecap="round" stroke-linejoin="round"/>
<path d="M3.94495 14.8815L5.53102 14.4565" stroke="white" stroke-width="1.64202" stroke-linecap="round" stroke-linejoin="round"/>
<path d="M19.8057 10.6316L21.3917 10.2066" stroke="white" stroke-width="1.64202" stroke-linecap="round" stroke-linejoin="round"/>
<path d="M8.15172 20.3671L8.97609 18.9392" stroke="white" stroke-width="1.64202" stroke-linecap="round" stroke-linejoin="round"/>
<path d="M16.3606 6.14882L17.185 4.72096" stroke="white" stroke-width="1.64202" stroke-linecap="round" stroke-linejoin="round"/>
</g>
<defs>
<clipPath id="clip0_1_14">
<rect width="19.7043" height="19.7043" fill="white" transform="translate(0.60199 5.57751) rotate(-15)"/>
</clipPath>
</defs>
</svg>
