<svg width="25" height="24" viewBox="0 0 25 24" fill="none" xmlns="http://www.w3.org/2000/svg">
<path d="M18.4089 8.03114C20.0115 8.03114 21.3107 6.73196 21.3107 5.12934C21.3107 3.52672 20.0115 2.22754 18.4089 2.22754C16.8063 2.22754 15.5071 3.52672 15.5071 5.12934C15.5071 6.73196 16.8063 8.03114 18.4089 8.03114Z" stroke="white" stroke-width="1.93453" stroke-linecap="round" stroke-linejoin="round"/>
<path d="M6.80242 14.802C8.40504 14.802 9.70422 13.5028 9.70422 11.9002C9.70422 10.2976 8.40504 8.99841 6.80242 8.99841C5.1998 8.99841 3.90062 10.2976 3.90062 11.9002C3.90062 13.5028 5.1998 14.802 6.80242 14.802Z" stroke="white" stroke-width="1.93453" stroke-linecap="round" stroke-linejoin="round"/>
<path d="M18.4089 21.5729C20.0115 21.5729 21.3107 20.2737 21.3107 18.6711C21.3107 17.0685 20.0115 15.7693 18.4089 15.7693C16.8063 15.7693 15.5071 17.0685 15.5071 18.6711C15.5071 20.2737 16.8063 21.5729 18.4089 21.5729Z" stroke="white" stroke-width="1.93453" stroke-linecap="round" stroke-linejoin="round"/>
<path d="M9.30676 13.3608L15.9132 17.2106" stroke="white" stroke-width="1.93453" stroke-linecap="round" stroke-linejoin="round"/>
<path d="M15.9035 6.58997L9.30676 10.4397" stroke="white" stroke-width="1.93453" stroke-linecap="round" stroke-linejoin="round"/>
</svg>
