<svg width="24" height="24" viewBox="0 0 24 24" fill="none" xmlns="http://www.w3.org/2000/svg">
<path d="M19.6681 2.22754H4.19181C3.1234 2.22754 2.25728 3.09366 2.25728 4.16207V8.03114C2.25728 9.09955 3.1234 9.96567 4.19181 9.96567H19.6681C20.7365 9.96567 21.6026 9.09955 21.6026 8.03114V4.16207C21.6026 3.09366 20.7365 2.22754 19.6681 2.22754Z" stroke="white" stroke-width="1.93453" stroke-linecap="round" stroke-linejoin="round"/>
<path d="M19.6681 13.8347H4.19181C3.1234 13.8347 2.25728 14.7008 2.25728 15.7692V19.6383C2.25728 20.7067 3.1234 21.5728 4.19181 21.5728H19.6681C20.7365 21.5728 21.6026 20.7067 21.6026 19.6383V15.7692C21.6026 14.7008 20.7365 13.8347 19.6681 13.8347Z" stroke="white" stroke-width="1.93453" stroke-linecap="round" stroke-linejoin="round"/>
<path d="M6.12679 6.09668H6.13574" stroke="white" stroke-width="1.93453" stroke-linecap="round" stroke-linejoin="round"/>
<path d="M6.12679 17.7039H6.13574" stroke="white" stroke-width="1.93453" stroke-linecap="round" stroke-linejoin="round"/>
</svg>
